<?xml version="1.0" encoding="UTF-8"?><svg id="Layer_1" xmlns="http://www.w3.org/2000/svg" viewBox="0 0 1440 600"><path d="M922.74,145.39c7.67,15.1,13.7,31.17,17.87,47.98,11.4,2.03,22.51,4.9,33.27,8.51,2.26-13.07,5.76-25.71,10.37-37.81-21.63-3.41-42.27-9.79-61.51-18.69Z" style="fill:#0500af;"/><path d="M600.7,477.09c8.26-1.04,16.67-1.58,25.22-1.58,15.79,0,31.15,1.85,45.88,5.32-.9-3.63-1.73-7.3-2.46-11-21.03-4.79-40.94-12.49-59.3-22.66-2.46,10.25-5.58,20.24-9.34,29.92Z" style="fill:#0500af;"/><path d="M318.19,137.85c2.51,8.95,4.51,18.12,5.95,27.47,3.91-1,7.85-1.89,11.84-2.69-3.66-8.8-6.79-17.87-9.37-27.18-2.79.85-5.59,1.64-8.42,2.39Z" style="fill:#0500af;"/><path d="M150.63,428.33c-18.57,4.73-38.02,7.26-58.06,7.26-32.88,0-64.18-6.79-92.57-19.01v36.49c98.52,0,182.83,60.81,217.46,146.94h56.08c-64.56-33.86-111.4-96.93-122.91-171.67Z" style="fill:#0500af;"/><path d="M813.18,40.86c-6.76-12.96-12.34-26.63-16.6-40.86h-21.39c3.15,9.65,5.7,19.57,7.58,29.73,10.46,3,20.62,6.73,30.41,11.14Z" style="fill:#0500af;"/><path d="M1242.33,43.59c26.1-20.53,56.68-35.61,90.02-43.59h-86.84c-4.13,13.79-9.48,27.04-15.95,39.64,4.32,1.18,8.58,2.5,12.78,3.95Z" style="fill:#0500af;"/><path d="M1387.05,462.18c-47.41,0-91.52-14.1-128.4-38.31-25.42,11.34-53.58,17.65-83.22,17.65-14.52,0-28.68-1.52-42.34-4.4-3.57,64.83-33.5,122.63-79.25,162.88h53.55c41.49-65.78,114.79-109.49,198.31-109.49,49.96,0,96.26,15.65,134.29,42.29v-76.63c-17.01,3.93-34.74,6.01-52.95,6.01Z" style="fill:#0500af;"/><path d="M150.63,428.33c-1.81-11.72-2.74-23.73-2.74-35.95,0-109.36,74.93-201.22,176.25-227.05-1.44-9.35-3.44-18.52-5.95-27.47-19.08,5.02-39.11,7.71-59.77,7.71C160.42,145.55,76.5,85.39,41.52,0H0v416.57c28.4,12.23,59.69,19.01,92.57,19.01,20.04,0,39.49-2.52,58.06-7.26Z" style="fill:#0500af;"/><path d="M150.63,428.33c-1.81-11.72-2.74-23.73-2.74-35.95,0-109.36,74.93-201.22,176.25-227.05-1.44-9.35-3.44-18.52-5.95-27.47-19.08,5.02-39.11,7.71-59.77,7.71C160.42,145.55,76.5,85.39,41.52,0H0v416.57c28.4,12.23,59.69,19.01,92.57,19.01,20.04,0,39.49-2.52,58.06-7.26Z" style="fill:#3636f2; opacity:.26;"/><path d="M326.61,135.46c2.58,9.3,5.71,18.38,9.37,27.18,14.94-2.99,30.4-4.57,46.22-4.57,43.06,0,83.4,11.63,118.07,31.9,25.73-97.29,114.35-169.02,219.73-169.02,21.77,0,42.83,3.07,62.77,8.78-1.89-10.16-4.43-20.08-7.58-29.73h-299.88c-26.51,64.72-81.14,114.94-148.7,135.46Z" style="fill:#0500af;"/><path d="M326.61,135.46c2.58,9.3,5.71,18.38,9.37,27.18,14.94-2.99,30.4-4.57,46.22-4.57,43.06,0,83.4,11.63,118.07,31.9,25.73-97.29,114.35-169.02,219.73-169.02,21.77,0,42.83,3.07,62.77,8.78-1.89-10.16-4.43-20.08-7.58-29.73h-299.88c-26.51,64.72-81.14,114.94-148.7,135.46Z" style="fill:#3636f2; opacity:.26;"/><path d="M600.7,477.09c3.76-9.68,6.88-19.67,9.34-29.92-55.12-30.53-96.21-83.3-111.16-146.21-73.89-17.27-134.32-69.52-162.91-138.33-3.98.8-7.93,1.69-11.84,2.69,1.81,11.72,2.74,23.73,2.74,35.95,0,109.36-74.93,201.22-176.25,227.05,11.51,74.74,58.34,137.81,122.91,171.67h167.76c26.5-65.53,86.87-113.74,159.41-122.91Z" style="fill:#0500af;"/><path d="M600.7,477.09c3.76-9.68,6.88-19.67,9.34-29.92-55.12-30.53-96.21-83.3-111.16-146.21-73.89-17.27-134.32-69.52-162.91-138.33-3.98.8-7.93,1.69-11.84,2.69,1.81,11.72,2.74,23.73,2.74,35.95,0,109.36-74.93,201.22-176.25,227.05,11.51,74.74,58.34,137.81,122.91,171.67h167.76c26.5-65.53,86.87-113.74,159.41-122.91Z" style="fill:#3636f2; opacity:.26;"/><path d="M147.89,392.37c0,12.23.94,24.23,2.74,35.95,101.32-25.83,176.25-117.69,176.25-227.05,0-12.23-.94-24.23-2.74-35.95-101.32,25.83-176.25,117.69-176.25,227.05Z" style="fill:#0500af;"/><path d="M147.89,392.37c0,12.23.94,24.23,2.74,35.95,101.32-25.83,176.25-117.69,176.25-227.05,0-12.23-.94-24.23-2.74-35.95-101.32,25.83-176.25,117.69-176.25,227.05Z" style="fill:#3636f2; opacity:.26;"/><path d="M147.89,392.37c0,12.23.94,24.23,2.74,35.95,101.32-25.83,176.25-117.69,176.25-227.05,0-12.23-.94-24.23-2.74-35.95-101.32,25.83-176.25,117.69-176.25,227.05Z" style="fill:#3636f2; opacity:.26;"/><path d="M500.27,189.97c-34.67-20.27-75.01-31.9-118.07-31.9-15.82,0-31.28,1.58-46.22,4.57,28.59,68.81,89.02,121.05,162.91,138.33-4.02-16.93-6.16-34.58-6.16-52.74,0-20.14,2.63-39.66,7.55-58.26Z" style="fill:#0500af;"/><path d="M500.27,189.97c-34.67-20.27-75.01-31.9-118.07-31.9-15.82,0-31.28,1.58-46.22,4.57,28.59,68.81,89.02,121.05,162.91,138.33-4.02-16.93-6.16-34.58-6.16-52.74,0-20.14,2.63-39.66,7.55-58.26Z" style="fill:#3636f2; opacity:.26;"/><path d="M500.27,189.97c-34.67-20.27-75.01-31.9-118.07-31.9-15.82,0-31.28,1.58-46.22,4.57,28.59,68.81,89.02,121.05,162.91,138.33-4.02-16.93-6.16-34.58-6.16-52.74,0-20.14,2.63-39.66,7.55-58.26Z" style="fill:#3636f2; opacity:.26;"/><path d="M600.7,477.09c-20.58,53.04-59.91,96.72-109.85,122.91h253.62c-35.17-30.94-60.99-72.26-72.67-119.17-14.73-3.47-30.09-5.32-45.88-5.32-8.54,0-16.96.54-25.22,1.58Z" style="fill:#0500af;"/><path d="M600.7,477.09c-20.58,53.04-59.91,96.72-109.85,122.91h253.62c-35.17-30.94-60.99-72.26-72.67-119.17-14.73-3.47-30.09-5.32-45.88-5.32-8.54,0-16.96.54-25.22,1.58Z" style="fill:#3636f2; opacity:.26;"/><path d="M600.7,477.09c-72.54,9.17-132.91,57.38-159.41,122.91h49.56c49.95-26.19,89.28-69.87,109.85-122.91Z" style="fill:#0500af;"/><path d="M600.7,477.09c-72.54,9.17-132.91,57.38-159.41,122.91h49.56c49.95-26.19,89.28-69.87,109.85-122.91Z" style="fill:#3636f2; opacity:.26;"/><path d="M600.7,477.09c-72.54,9.17-132.91,57.38-159.41,122.91h49.56c49.95-26.19,89.28-69.87,109.85-122.91Z" style="fill:#3636f2; opacity:.26;"/><path d="M1133.1,437.12c-92.66-19.5-162.23-101.71-162.23-200.17,0-11.96,1.04-23.67,3-35.06-10.76-3.62-21.87-6.48-33.27-8.51,4.35,17.57,6.68,35.94,6.68,54.85,0,125.52-101.76,227.28-227.28,227.28-17.41,0-34.37-1.97-50.66-5.67.73,3.7,1.55,7.36,2.46,11,63.23,14.91,114.8,59.97,138.75,119.17h243.3c45.75-40.25,75.68-98.05,79.25-162.88Z" style="fill:#0500af;"/><path d="M1133.1,437.12c-92.66-19.5-162.23-101.71-162.23-200.17,0-11.96,1.04-23.67,3-35.06-10.76-3.62-21.87-6.48-33.27-8.51,4.35,17.57,6.68,35.94,6.68,54.85,0,125.52-101.76,227.28-227.28,227.28-17.41,0-34.37-1.97-50.66-5.67.73,3.7,1.55,7.36,2.46,11,63.23,14.91,114.8,59.97,138.75,119.17h243.3c45.75-40.25,75.68-98.05,79.25-162.88Z" style="fill:#3636f2; opacity:.26;"/><path d="M744.47,600h66.08c-23.94-59.2-75.52-104.25-138.75-119.17,11.68,46.91,37.5,88.23,72.67,119.17Z" style="fill:#0500af;"/><path d="M744.47,600h66.08c-23.94-59.2-75.52-104.25-138.75-119.17,11.68,46.91,37.5,88.23,72.67,119.17Z" style="fill:#3636f2; opacity:.26;"/><path d="M744.47,600h66.08c-23.94-59.2-75.52-104.25-138.75-119.17,11.68,46.91,37.5,88.23,72.67,119.17Z" style="fill:#3636f2; opacity:.26;"/><path d="M1152.75,227.87c0-74.78,35.04-141.38,89.59-184.28-4.2-1.45-8.46-2.77-12.78-3.95-38.87,75.61-117.65,127.34-208.51,127.34-12.52,0-24.81-.99-36.8-2.89-4.61,12.09-8.11,24.74-10.37,37.81,92.77,31.19,159.6,118.86,159.6,222.14,0,4.39-.13,8.76-.37,13.09,13.66,2.88,27.82,4.4,42.34,4.4,29.63,0,57.79-6.31,83.22-17.65-63.78-41.87-105.9-114.01-105.9-196Z" style="fill:#0500af;"/><path d="M1152.75,227.87c0-74.78,35.04-141.38,89.59-184.28-4.2-1.45-8.46-2.77-12.78-3.95-38.87,75.61-117.65,127.34-208.51,127.34-12.52,0-24.81-.99-36.8-2.89-4.61,12.09-8.11,24.74-10.37,37.81,92.77,31.19,159.6,118.86,159.6,222.14,0,4.39-.13,8.76-.37,13.09,13.66,2.88,27.82,4.4,42.34,4.4,29.63,0,57.79-6.31,83.22-17.65-63.78-41.87-105.9-114.01-105.9-196Z" style="fill:#3636f2; opacity:.26;"/><path d="M973.87,201.89c-1.97,11.39-3,23.1-3,35.06,0,98.46,69.57,180.67,162.23,200.17.24-4.33.37-8.7.37-13.09,0-103.28-66.83-190.95-159.6-222.14Z" style="fill:#0500af;"/><path d="M973.87,201.89c-1.97,11.39-3,23.1-3,35.06,0,98.46,69.57,180.67,162.23,200.17.24-4.33.37-8.7.37-13.09,0-103.28-66.83-190.95-159.6-222.14Z" style="fill:#3636f2; opacity:.26;"/><path d="M973.87,201.89c-1.97,11.39-3,23.1-3,35.06,0,98.46,69.57,180.67,162.23,200.17.24-4.33.37-8.7.37-13.09,0-103.28-66.83-190.95-159.6-222.14Z" style="fill:#3636f2; opacity:.26;"/><path d="M922.74,145.39c19.23,8.9,39.88,15.28,61.51,18.69,29.36-77,103.88-131.7,191.19-131.7,18.74,0,36.88,2.53,54.12,7.25,6.47-12.59,11.82-25.85,15.95-39.64h-448.94c4.27,14.24,9.84,27.91,16.6,40.86,47.37,21.32,86.11,58.38,109.56,104.53Z" style="fill:#0500af;"/><path d="M922.74,145.39c19.23,8.9,39.88,15.28,61.51,18.69,29.36-77,103.88-131.7,191.19-131.7,18.74,0,36.88,2.53,54.12,7.25,6.47-12.59,11.82-25.85,15.95-39.64h-448.94c4.27,14.24,9.84,27.91,16.6,40.86,47.37,21.32,86.11,58.38,109.56,104.53Z" style="fill:#3636f2; opacity:.26;"/><path d="M1229.56,39.64c-17.24-4.72-35.38-7.25-54.12-7.25-87.31,0-161.83,54.7-191.19,131.7,11.99,1.89,24.28,2.89,36.8,2.89,90.87,0,169.65-51.73,208.51-127.34Z" style="fill:#0500af;"/><path d="M1229.56,39.64c-17.24-4.72-35.38-7.25-54.12-7.25-87.31,0-161.83,54.7-191.19,131.7,11.99,1.89,24.28,2.89,36.8,2.89,90.87,0,169.65-51.73,208.51-127.34Z" style="fill:#3636f2; opacity:.26;"/><path d="M1229.56,39.64c-17.24-4.72-35.38-7.25-54.12-7.25-87.31,0-161.83,54.7-191.19,131.7,11.99,1.89,24.28,2.89,36.8,2.89,90.87,0,169.65-51.73,208.51-127.34Z" style="fill:#3636f2; opacity:.26;"/><path d="M1380,236.95c0,83.34-49.85,155.04-121.35,186.92,36.88,24.21,80.99,38.31,128.4,38.31,18.21,0,35.93-2.08,52.95-6.01V0h-107.65c-33.34,7.97-63.91,23.06-90.02,43.59,80.12,27.72,137.67,103.82,137.67,193.36Z" style="fill:#0500af;"/><path d="M1380,236.95c0,83.34-49.85,155.04-121.35,186.92,36.88,24.21,80.99,38.31,128.4,38.31,18.21,0,35.93-2.08,52.95-6.01V0h-107.65c-33.34,7.97-63.91,23.06-90.02,43.59,80.12,27.72,137.67,103.82,137.67,193.36Z" style="fill:#3636f2; opacity:.26;"/><path d="M1380,236.95c0-89.55-57.54-165.65-137.67-193.36-54.55,42.9-89.59,109.5-89.59,184.28,0,81.99,42.12,154.13,105.9,196,71.5-31.88,121.35-103.58,121.35-186.92Z" style="fill:#0500af;"/><path d="M1380,236.95c0-89.55-57.54-165.65-137.67-193.36-54.55,42.9-89.59,109.5-89.59,184.28,0,81.99,42.12,154.13,105.9,196,71.5-31.88,121.35-103.58,121.35-186.92Z" style="fill:#3636f2; opacity:.26;"/><path d="M1380,236.95c0-89.55-57.54-165.65-137.67-193.36-54.55,42.9-89.59,109.5-89.59,184.28,0,81.99,42.12,154.13,105.9,196,71.5-31.88,121.35-103.58,121.35-186.92Z" style="fill:#3636f2; opacity:.26;"/><path d="M1107.4,600h332.6v-67.2c-38.03-26.65-84.33-42.29-134.29-42.29-83.52,0-156.82,43.71-198.31,109.49Z" style="fill:#0500af;"/><path d="M1107.4,600h332.6v-67.2c-38.03-26.65-84.33-42.29-134.29-42.29-83.52,0-156.82,43.71-198.31,109.49Z" style="fill:#3636f2; opacity:.26;"/><path d="M0,453.06v146.94h217.46C182.83,513.87,98.52,453.06,0,453.06Z" style="fill:#0500af;"/><path d="M0,453.06v146.94h217.46C182.83,513.87,98.52,453.06,0,453.06Z" style="fill:#3636f2; opacity:.26;"/><path d="M318.12,72.81c0-25.42,4.06-49.89,11.55-72.81h-117.11c50.87,30.39,89.26,79.51,105.62,137.85,2.83-.74,5.63-1.54,8.42-2.39-5.52-19.94-8.48-40.95-8.48-62.65Z" style="fill:#0500af;"/><path d="M318.12,72.81c0-25.42,4.06-49.89,11.55-72.81h-117.11c50.87,30.39,89.26,79.51,105.62,137.85,2.83-.74,5.63-1.54,8.42-2.39-5.52-19.94-8.48-40.95-8.48-62.65Z" style="fill:#3636f2; opacity:.26;"/><path d="M212.56,0H41.52c34.98,85.39,118.9,145.55,216.89,145.55,20.66,0,40.69-2.69,59.77-7.71C301.82,79.51,263.43,30.39,212.56,0Z" style="fill:#0500af;"/><path d="M212.56,0H41.52c34.98,85.39,118.9,145.55,216.89,145.55,20.66,0,40.69-2.69,59.77-7.71C301.82,79.51,263.43,30.39,212.56,0Z" style="fill:#3636f2; opacity:.26;"/><path d="M212.56,0H41.52c34.98,85.39,118.9,145.55,216.89,145.55,20.66,0,40.69-2.69,59.77-7.71C301.82,79.51,263.43,30.39,212.56,0Z" style="fill:#3636f2; opacity:.26;"/><path d="M326.61,135.46C394.17,114.94,448.79,64.72,475.31,0h-145.63c-7.49,22.92-11.55,47.39-11.55,72.81,0,21.7,2.96,42.71,8.48,62.65Z" style="fill:#0500af;"/><path d="M326.61,135.46C394.17,114.94,448.79,64.72,475.31,0h-145.63c-7.49,22.92-11.55,47.39-11.55,72.81,0,21.7,2.96,42.71,8.48,62.65Z" style="fill:#3636f2; opacity:.26;"/><path d="M326.61,135.46C394.17,114.94,448.79,64.72,475.31,0h-145.63c-7.49,22.92-11.55,47.39-11.55,72.81,0,21.7,2.96,42.71,8.48,62.65Z" style="fill:#3636f2; opacity:.26;"/><path d="M813.18,40.86c-9.79-4.4-19.94-8.13-30.41-11.14,2.6,13.97,3.97,28.36,3.97,43.08,0,113.58-80.82,208.27-188.08,229.74,11.49,27.67,17.85,58,17.85,89.83,0,18.87-2.25,37.22-6.46,54.79,18.36,10.17,38.27,17.88,59.3,22.66-2.94-14.81-4.49-30.13-4.49-45.8,0-129.4,104.9-234.31,234.31-234.31,14.14,0,27.99,1.25,41.44,3.65-4.17-16.81-10.19-32.88-17.87-47.98-47.05-21.78-85.66-58.71-109.56-104.53Z" style="fill:#0500af;"/><path d="M813.18,40.86c-9.79-4.4-19.94-8.13-30.41-11.14,2.6,13.97,3.97,28.36,3.97,43.08,0,113.58-80.82,208.27-188.08,229.74,11.49,27.67,17.85,58,17.85,89.83,0,18.87-2.25,37.22-6.46,54.79,18.36,10.17,38.27,17.88,59.3,22.66-2.94-14.81-4.49-30.13-4.49-45.8,0-129.4,104.9-234.31,234.31-234.31,14.14,0,27.99,1.25,41.44,3.65-4.17-16.81-10.19-32.88-17.87-47.98-47.05-21.78-85.66-58.71-109.56-104.53Z" style="fill:#3636f2; opacity:.26;"/><path d="M598.65,302.55c107.27-21.46,188.08-116.16,188.08-229.74,0-14.72-1.37-29.12-3.97-43.08-19.94-5.72-40.99-8.78-62.77-8.78-105.38,0-194,71.73-219.73,169.02,43.9,25.66,78.69,65.19,98.38,112.58Z" style="fill:#0500af;"/><path d="M598.65,302.55c107.27-21.46,188.08-116.16,188.08-229.74,0-14.72-1.37-29.12-3.97-43.08-19.94-5.72-40.99-8.78-62.77-8.78-105.38,0-194,71.73-219.73,169.02,43.9,25.66,78.69,65.19,98.38,112.58Z" style="fill:#3636f2; opacity:.26;"/><path d="M598.65,302.55c107.27-21.46,188.08-116.16,188.08-229.74,0-14.72-1.37-29.12-3.97-43.08-19.94-5.72-40.99-8.78-62.77-8.78-105.38,0-194,71.73-219.73,169.02,43.9,25.66,78.69,65.19,98.38,112.58Z" style="fill:#3636f2; opacity:.26;"/><path d="M598.65,302.55c-14.94,2.99-30.4,4.57-46.22,4.57-18.42,0-36.35-2.13-53.55-6.15,14.95,62.9,56.04,115.67,111.16,146.21,4.21-17.58,6.46-35.92,6.46-54.79,0-31.82-6.36-62.16-17.85-89.83Z" style="fill:#0500af;"/><path d="M598.65,302.55c-14.94,2.99-30.4,4.57-46.22,4.57-18.42,0-36.35-2.13-53.55-6.15,14.95,62.9,56.04,115.67,111.16,146.21,4.21-17.58,6.46-35.92,6.46-54.79,0-31.82-6.36-62.16-17.85-89.83Z" style="fill:#3636f2; opacity:.26;"/><path d="M598.65,302.55c-14.94,2.99-30.4,4.57-46.22,4.57-18.42,0-36.35-2.13-53.55-6.15,14.95,62.9,56.04,115.67,111.16,146.21,4.21-17.58,6.46-35.92,6.46-54.79,0-31.82-6.36-62.16-17.85-89.83Z" style="fill:#3636f2; opacity:.26;"/><path d="M598.65,302.55c-19.69-47.39-54.49-86.92-98.38-112.58-4.92,18.6-7.55,38.12-7.55,58.26,0,18.16,2.14,35.81,6.16,52.74,17.2,4.02,35.12,6.15,53.55,6.15,15.82,0,31.28-1.58,46.22-4.57Z" style="fill:#0500af;"/><path d="M598.65,302.55c-19.69-47.39-54.49-86.92-98.38-112.58-4.92,18.6-7.55,38.12-7.55,58.26,0,18.16,2.14,35.81,6.16,52.74,17.2,4.02,35.12,6.15,53.55,6.15,15.82,0,31.28-1.58,46.22-4.57Z" style="fill:#3636f2; opacity:.26;"/><path d="M598.65,302.55c-19.69-47.39-54.49-86.92-98.38-112.58-4.92,18.6-7.55,38.12-7.55,58.26,0,18.16,2.14,35.81,6.16,52.74,17.2,4.02,35.12,6.15,53.55,6.15,15.82,0,31.28-1.58,46.22-4.57Z" style="fill:#3636f2; opacity:.26;"/><path d="M598.65,302.55c-19.69-47.39-54.49-86.92-98.38-112.58-4.92,18.6-7.55,38.12-7.55,58.26,0,18.16,2.14,35.81,6.16,52.74,17.2,4.02,35.12,6.15,53.55,6.15,15.82,0,31.28-1.58,46.22-4.57Z" style="fill:#3636f2; opacity:.26;"/><path d="M664.85,424.03c0,15.68,1.55,30.99,4.49,45.8,16.29,3.71,33.24,5.67,50.66,5.67,125.52,0,227.28-101.76,227.28-227.28,0-18.91-2.33-37.28-6.68-54.85-13.45-2.4-27.3-3.65-41.44-3.65-129.4,0-234.31,104.9-234.31,234.31Z" style="fill:#0500af;"/><path d="M664.85,424.03c0,15.68,1.55,30.99,4.49,45.8,16.29,3.71,33.24,5.67,50.66,5.67,125.52,0,227.28-101.76,227.28-227.28,0-18.91-2.33-37.28-6.68-54.85-13.45-2.4-27.3-3.65-41.44-3.65-129.4,0-234.31,104.9-234.31,234.31Z" style="fill:#3636f2; opacity:.26;"/><path d="M664.85,424.03c0,15.68,1.55,30.99,4.49,45.8,16.29,3.71,33.24,5.67,50.66,5.67,125.52,0,227.28-101.76,227.28-227.28,0-18.91-2.33-37.28-6.68-54.85-13.45-2.4-27.3-3.65-41.44-3.65-129.4,0-234.31,104.9-234.31,234.31Z" style="fill:#3636f2; opacity:.26;"/><path d="M922.74,145.39c-23.45-46.15-62.19-83.21-109.56-104.53,23.9,45.82,62.51,82.75,109.56,104.53Z" style="fill:#0500af;"/><path d="M922.74,145.39c-23.45-46.15-62.19-83.21-109.56-104.53,23.9,45.82,62.51,82.75,109.56,104.53Z" style="fill:#3636f2; opacity:.26;"/><path d="M922.74,145.39c-23.45-46.15-62.19-83.21-109.56-104.53,23.9,45.82,62.51,82.75,109.56,104.53Z" style="fill:#3636f2; opacity:.26;"/></svg>